<?xml version="1.0" standalone="no"?>
<!DOCTYPE svg PUBLIC "-//W3C//DTD SVG 20010904//EN"
 "http://www.w3.org/TR/2001/REC-SVG-20010904/DTD/svg10.dtd">
<svg version="1.0" xmlns="http://www.w3.org/2000/svg"
 width="959.000000pt" height="959.000000pt" viewBox="0 0 959.000000 959.000000"
 preserveAspectRatio="xMidYMid meet">
<metadata>
Created by potrace 1.11, written by Peter Selinger 2001-2013
</metadata>
<g transform="translate(0.000000,959.000000) scale(0.100000,-0.100000)"
fill="#000000" stroke="none">
<path d="M5 4795 c0 -2640 1 -3719 2 -2397 2 1322 2 3482 0 4800 -1 1318 -2
237 -2 -2403z"/>
<path d="M5248 7751 c-23 -5 -100 -71 -135 -114 -6 -8 -17 -34 -24 -58 -7 -24
-16 -48 -21 -53 -4 -6 -8 -20 -8 -33 0 -13 -4 -23 -10 -23 -5 0 -10 -16 -10
-35 0 -44 -14 -44 -54 -1 -34 36 -74 61 -83 52 -6 -5 9 -20 136 -138 88 -82
82 -100 -44 -112 -132 -13 -118 -19 -131 49 -19 107 -70 178 -149 211 -22 9
-46 21 -54 27 -7 7 -19 12 -25 12 -6 1 -41 4 -77 9 -51 6 -79 4 -128 -10 -35
-9 -65 -23 -68 -30 -2 -7 -17 -15 -31 -19 -30 -6 -147 -112 -163 -147 -5 -13
-17 -34 -25 -48 -11 -19 -14 -47 -11 -110 3 -77 7 -90 37 -134 18 -27 49 -58
68 -69 l35 -20 -7 -80 c-4 -44 -11 -87 -15 -96 -9 -16 -54 -284 -66 -390 -4
-30 -11 -66 -17 -80 -9 -25 -25 -98 -32 -151 -19 -132 -50 -333 -71 -450 -8
-47 -22 -146 -30 -220 -9 -74 -20 -162 -26 -195 -6 -33 -15 -98 -19 -145 -23
-227 -33 -315 -51 -465 -10 -84 -13 -114 -30 -285 -17 -167 -18 -181 -29 -260
-11 -85 -27 -321 -35 -515 -13 -341 -16 -420 -20 -695 -3 -165 -1 -301 4 -309
14 -22 20 46 26 314 3 132 7 276 9 320 3 44 7 166 11 270 3 105 8 217 10 250
2 33 7 101 10 150 3 50 10 104 15 120 5 17 11 84 14 150 7 144 29 370 56 565
24 169 40 319 40 380 0 36 12 133 25 215 14 83 34 220 46 305 11 85 31 218 45
295 15 77 30 174 35 215 13 109 24 171 38 205 14 33 33 125 61 290 10 61 26
150 36 199 15 77 15 91 3 95 -8 2 -39 29 -70 60 -69 69 -84 115 -68 211 5 35
13 68 16 74 36 60 165 176 196 176 7 0 17 4 22 8 6 5 36 15 69 22 117 27 251
-26 332 -132 23 -30 38 -113 26 -148 -7 -18 -12 -39 -12 -46 0 -15 31 -19 45
-6 6 5 42 14 80 21 192 32 480 30 583 -4 32 -11 56 -15 62 -9 5 5 4 32 -2 64
-21 117 18 192 130 247 50 24 68 27 147 27 70 -1 101 -6 140 -23 105 -47 205
-192 205 -298 0 -57 -3 -62 -88 -149 -31 -31 -32 -35 -18 -56 8 -13 24 -75 36
-138 12 -63 33 -137 46 -163 13 -27 24 -59 24 -71 0 -12 7 -31 15 -42 14 -19
14 -19 15 1 0 11 -7 42 -15 69 -8 27 -15 68 -15 90 -1 23 -10 66 -21 96 -41
110 -49 160 -34 191 8 15 19 30 24 34 17 10 61 116 61 146 0 16 -4 37 -9 47
-6 9 -12 29 -15 43 -3 15 -25 55 -49 90 -92 135 -218 186 -382 154 -92 -17
-167 -67 -209 -139 -28 -48 -32 -80 -15 -139 6 -22 8 -41 5 -44 -3 -3 -34 2
-70 12 -36 10 -72 15 -80 12 -18 -7 -76 2 -76 12 0 3 19 15 41 25 54 26 89 69
89 110 0 42 -32 76 -71 76 -38 0 -46 20 -25 64 9 19 16 58 16 88 0 48 -4 59
-36 96 -36 42 -49 47 -106 33z m88 -45 c39 -39 35 -118 -11 -209 -36 -71 -27
-88 33 -64 35 14 42 14 61 1 25 -18 27 -51 5 -82 -23 -33 -41 -40 -155 -57
-99 -14 -105 -14 -129 3 -44 33 -66 120 -49 197 35 155 178 279 245 211z"/>
<path d="M5012 7501 c2 -14 9 -26 16 -29 17 -5 15 10 -3 34 -15 18 -15 18 -13
-5z"/>
<path d="M5540 6778 c-25 -42 -25 -68 0 -123 50 -111 140 -99 140 18 0 53 -3
60 -40 97 -49 49 -74 51 -100 8z"/>
<path d="M4760 6737 c-31 -15 -48 -50 -57 -112 -5 -42 -3 -50 18 -66 13 -10
34 -19 46 -19 31 0 69 51 77 104 14 90 -19 126 -84 93z"/>
<path d="M5160 6585 c0 -9 5 -15 11 -13 6 2 11 8 11 13 0 5 -5 11 -11 13 -6 2
-11 -4 -11 -13z"/>
<path d="M6241 6543 c-1 -12 4 -25 9 -28 12 -7 12 2 0 30 -8 19 -9 19 -9 -2z"/>
<path d="M6261 6484 c0 -11 3 -14 6 -6 3 7 2 16 -1 19 -3 4 -6 -2 -5 -13z"/>
<path d="M6284 6373 c3 -16 8 -46 12 -68 3 -22 13 -65 21 -95 9 -30 17 -68 18
-83 3 -30 11 -44 20 -35 5 4 -13 102 -36 193 -5 22 -12 57 -16 78 -3 20 -10
37 -15 37 -5 0 -7 -12 -4 -27z"/>
<path d="M5164 6328 c3 -17 11 -37 18 -45 10 -12 13 -12 26 0 11 12 12 19 1
38 -25 48 -54 52 -45 7z"/>
<path d="M6353 6056 c3 -8 15 -72 27 -143 12 -70 25 -137 30 -148 9 -23 23
-89 45 -220 28 -169 38 -206 50 -194 4 5 -45 281 -64 364 -6 22 -15 65 -20 95
-30 156 -55 260 -64 260 -5 0 -7 -6 -4 -14z"/>
<path d="M6500 5303 c0 -23 4 -53 9 -66 6 -14 12 -56 15 -93 3 -38 11 -89 17
-114 5 -25 12 -56 14 -70 16 -102 38 -234 46 -280 5 -30 13 -88 19 -128 5 -40
12 -77 14 -80 4 -7 19 -122 36 -287 5 -44 11 -93 14 -110 3 -16 7 -59 10 -95
6 -90 34 -300 51 -390 7 -41 19 -120 25 -175 7 -55 14 -111 17 -125 35 -160
70 -1027 51 -1262 -4 -51 -10 -127 -13 -168 -7 -90 -11 -121 -20 -149 -3 -12
-2 -21 4 -21 16 0 23 17 28 73 2 29 10 57 16 64 14 14 82 17 244 10 98 -5 124
-3 133 8 7 8 17 12 24 8 12 -8 36 -14 51 -14 6 0 60 3 120 7 61 3 115 5 120 4
6 -1 54 -3 107 -4 54 -1 100 -5 103 -8 3 -3 7 -94 10 -204 6 -286 11 -306 72
-283 15 5 68 9 118 8 l90 -2 -3 89 c-2 49 -4 159 -5 244 l-2 155 95 1 c52 0
142 2 200 4 139 4 156 2 172 -14 12 -12 16 -10 26 16 9 23 8 30 -3 35 -19 7 2
7 -790 -1 -775 -9 -773 -8 -830 -4 l-40 3 1 75 c0 41 3 149 5 239 4 141 -9
498 -27 748 -5 67 -4 73 18 86 19 12 110 14 570 12 454 -2 550 0 559 11 6 8
10 15 8 15 -2 1 -83 3 -179 4 -96 1 -185 5 -198 9 -17 6 -27 3 -36 -9 -11 -15
-16 -16 -35 -5 -12 6 -28 9 -35 7 -7 -3 -41 -2 -75 2 -35 4 -106 4 -159 0 -61
-5 -122 -3 -164 4 -49 8 -86 8 -140 0 -86 -14 -146 -1 -153 32 -3 11 -9 70
-15 130 -5 61 -12 122 -15 138 -10 57 -13 76 -24 168 -7 52 -16 123 -21 159
-5 36 -19 148 -30 250 -28 240 -47 392 -60 460 -5 30 -12 81 -15 112 -8 91
-32 235 -54 334 -18 81 -32 172 -47 309 -12 107 -43 199 -44 128z m1506 -3461
c7 -5 10 -81 10 -227 l-1 -220 -90 -7 c-107 -8 -125 -4 -124 25 0 12 -2 81 -5
152 -10 218 -10 253 4 270 9 11 34 15 104 15 50 0 96 -4 102 -8z"/>
<path d="M3042 4159 c-82 -9 -151 -37 -182 -74 -7 -8 -17 -15 -22 -15 -5 0
-29 -17 -53 -37 -34 -28 -58 -64 -100 -148 -30 -61 -57 -124 -59 -140 -3 -17
-10 -57 -16 -90 -19 -99 -30 -249 -33 -447 -1 -64 -5 -119 -9 -123 -3 -4 -248
-8 -543 -9 -522 -2 -537 -2 -547 -21 -6 -11 -41 -56 -78 -100 -70 -83 -200
-252 -200 -260 0 -3 -12 -23 -27 -44 -16 -21 -35 -49 -43 -61 -8 -13 -25 -32
-37 -43 -13 -11 -23 -25 -23 -29 0 -5 -22 -46 -48 -91 -27 -45 -51 -91 -54
-102 -3 -11 -9 -28 -13 -38 -7 -17 -6 -18 13 -6 20 13 62 85 62 108 0 6 5 11
11 11 5 0 17 15 25 33 22 49 46 87 113 177 34 45 61 86 61 90 0 5 18 30 40 55
22 25 40 50 40 54 0 4 27 39 60 77 33 38 70 88 81 111 11 24 24 45 29 48 4 3
248 5 541 6 496 0 534 -1 546 -17 9 -13 12 -56 9 -163 -3 -118 -8 -155 -24
-191 -24 -55 -54 -88 -87 -96 -36 -9 -31 -31 18 -78 24 -23 69 -70 101 -106
33 -36 75 -83 96 -105 20 -22 45 -52 54 -67 13 -19 27 -28 45 -28 15 0 31 -4
36 -9 18 -17 125 -50 203 -62 42 -7 82 -17 89 -22 15 -11 69 -116 87 -169 11
-29 11 -40 1 -48 -10 -8 -165 -12 -427 -10 -10 0 -55 -1 -100 -1 -46 0 -195 0
-333 0 -137 1 -258 1 -267 1 -10 0 -24 0 -30 1 -20 1 -592 0 -613 -1 -5 0 -41
0 -80 1 -38 2 -81 -1 -95 -6 -14 -5 -32 -8 -42 -6 -28 4 -31 -95 -23 -833 6
-581 4 -704 -7 -713 -7 -5 -41 -11 -75 -12 -51 -2 -63 1 -71 16 -5 10 -9 79
-10 153 -1 74 -4 203 -7 285 -16 505 -17 527 -31 690 -3 39 -8 185 -10 325 -5
247 -9 393 -14 455 l-2 30 -8 -32 c-11 -48 -11 -499 1 -718 17 -327 18 -370
30 -795 6 -228 12 -421 15 -428 2 -9 28 -12 94 -10 74 2 95 7 108 22 16 17 17
78 19 705 1 548 4 818 8 832 1 5 155 8 158 2 3 -4 8 -96 12 -203 3 -107 10
-211 14 -230 l7 -35 114 0 c81 0 117 4 127 13 7 8 11 17 9 21 -8 12 -15 431
-8 432 9 0 273 0 571 -1 179 0 237 3 243 12 6 10 12 10 29 0 11 -7 23 -11 26
-8 3 2 16 1 29 -4 17 -7 37 -5 65 4 30 10 42 11 45 3 4 -12 330 -15 360 -3 8
3 24 0 35 -7 16 -10 25 -9 50 6 24 13 35 15 45 6 10 -8 93 -12 287 -11 149 0
281 1 292 2 91 4 166 -1 170 -12 2 -7 13 -47 25 -88 31 -107 64 -203 99 -290
17 -41 31 -80 31 -87 0 -6 3 -13 8 -15 9 -4 62 -114 62 -129 0 -6 13 -29 29
-52 15 -23 31 -51 35 -63 3 -11 15 -30 25 -41 11 -11 31 -44 46 -72 14 -29 32
-54 40 -58 8 -3 15 -11 15 -18 0 -26 127 -143 187 -174 33 -16 67 -41 77 -55
21 -33 36 -33 36 -2 0 14 5 28 11 32 15 9 -9 24 -39 24 -40 0 -106 37 -152 85
-25 26 -58 60 -74 76 -16 17 -38 46 -48 67 -11 20 -26 42 -34 48 -7 6 -23 33
-34 60 -12 27 -30 58 -40 69 -23 24 -140 273 -140 297 0 6 -9 23 -20 38 -11
16 -27 52 -36 82 -8 29 -37 123 -64 208 -27 85 -51 166 -54 180 -17 95 -29
105 -21 19 6 -66 6 -66 -23 -78 -16 -7 -46 -12 -68 -12 -21 0 -144 -1 -271 -2
-194 -2 -232 0 -230 12 1 7 -6 15 -16 17 -29 4 -30 8 -12 72 12 42 14 65 7 78
-8 15 -11 13 -16 -14 -4 -17 -14 -36 -21 -42 -16 -13 -35 -5 -35 13 0 7 -9 29
-20 50 -23 42 -18 61 12 54 20 -6 177 22 251 43 52 15 65 8 72 -37 7 -41 19
-79 41 -130 8 -17 14 -38 14 -47 0 -32 27 -26 68 15 38 38 40 41 16 35 -23 -6
-25 -4 -19 11 4 10 13 33 19 51 6 17 14 32 18 32 5 0 8 9 8 20 0 29 -19 25
-31 -7 -21 -52 -27 -68 -33 -85 -6 -21 -29 -23 -43 -5 -6 6 -13 29 -17 49 -4
20 -13 50 -21 65 -23 43 -18 59 28 92 87 63 137 128 137 181 0 20 5 41 10 46
18 18 32 176 26 289 -6 118 -7 125 -38 228 -11 37 -17 74 -14 83 3 8 2 22 -3
32 -5 9 -19 58 -30 107 -28 125 -80 343 -91 385 -5 19 -11 49 -14 65 -2 17
-12 76 -22 132 -18 102 -15 164 13 282 6 24 5 24 -50 18 -52 -7 -61 -4 -154
42 -112 55 -160 64 -291 50z m222 -41 c21 -5 57 -21 80 -36 27 -17 62 -28 104
-33 35 -3 65 -9 68 -12 3 -3 -2 -39 -11 -81 -14 -72 -14 -127 0 -221 18 -116
46 -249 58 -277 8 -18 20 -69 27 -113 7 -44 21 -116 32 -160 15 -63 17 -87 9
-115 -5 -19 -17 -80 -26 -135 -9 -55 -23 -113 -30 -130 -7 -16 -23 -59 -35
-95 -13 -36 -31 -80 -42 -98 -11 -18 -17 -39 -14 -47 11 -30 62 -16 181 49 48
26 59 22 52 -21 -4 -21 -9 -58 -13 -83 -10 -76 -89 -224 -138 -260 -28 -21
-194 -90 -231 -96 -16 -3 -97 -5 -180 -5 -138 0 -156 2 -220 26 -121 46 -174
73 -191 100 -9 14 -21 25 -28 25 -6 0 -17 10 -25 23 -23 36 -73 97 -119 145
-25 26 -40 48 -35 53 5 5 32 11 60 13 100 9 133 24 195 89 l59 62 52 -29 c29
-16 67 -41 86 -55 19 -14 57 -43 85 -65 82 -64 159 -85 173 -49 4 9 2 18 -4
20 -6 2 -30 57 -53 121 -23 64 -45 124 -49 132 -4 8 -14 39 -21 69 -14 60 -9
257 8 287 5 9 7 26 4 37 -7 27 -40 -75 -49 -151 -7 -60 11 -177 35 -237 10
-22 16 -43 14 -48 -4 -13 37 -124 61 -164 16 -28 17 -37 7 -43 -22 -14 -113
33 -154 79 -11 11 -23 21 -29 21 -5 0 -25 14 -44 30 -18 17 -39 30 -45 30 -7
0 -22 9 -34 21 -31 29 -68 17 -104 -35 -35 -52 -110 -85 -224 -101 -37 -5 -38
-5 -31 22 3 15 19 43 34 62 15 20 31 45 35 56 5 11 10 180 11 375 4 388 10
506 30 590 50 204 118 322 236 410 81 61 251 82 383 48z m401 -1101 c21 -69
27 -103 40 -207 13 -113 13 -115 -8 -138 -33 -36 -74 -63 -104 -68 -15 -3 -33
-10 -41 -16 -8 -7 -16 -8 -23 -1 -6 6 -1 29 16 66 13 31 28 75 31 97 4 22 9
40 13 40 10 0 30 96 37 182 5 56 10 75 19 71 7 -2 16 -14 20 -26z m-2029
-1180 c7 -7 6 -419 -1 -425 -7 -8 -146 -12 -167 -6 -15 4 -18 18 -18 77 -1 40
-5 117 -11 172 -21 192 -18 196 108 191 47 -2 87 -6 89 -9z"/>
<path d="M3147 4058 c-7 -22 11 -82 29 -95 12 -9 22 -9 36 -2 22 12 19 45 -8
87 -16 24 -50 30 -57 10z"/>
<path d="M3431 3984 c-7 -8 -11 -17 -9 -20 3 -2 13 5 23 16 10 11 14 20 9 20
-5 -1 -15 -8 -23 -16z"/>
<path d="M3382 3911 c-28 -49 -29 -72 -2 -38 11 14 20 31 20 39 0 8 5 19 12
26 7 7 8 12 2 12 -6 0 -20 -17 -32 -39z"/>
<path d="M3305 3753 c-15 -38 -29 -74 -32 -80 -3 -7 0 -13 6 -13 6 0 11 7 11
15 0 9 7 26 15 38 20 32 46 107 36 107 -5 0 -21 -30 -36 -67z"/>
<path d="M3257 3640 c-10 -24 -53 -160 -70 -220 -47 -167 -63 -240 -52 -240
14 0 47 101 60 188 8 52 19 100 24 105 6 6 11 20 11 31 0 11 9 39 21 63 11 23
19 53 16 65 -2 17 -5 19 -10 8z"/>
<path d="M5707 3653 c-9 -49 -19 -113 -22 -143 -6 -50 -20 -106 -47 -185 -6
-16 -16 -52 -24 -80 -8 -27 -24 -68 -36 -90 -12 -22 -25 -67 -29 -101 -4 -43
-13 -69 -28 -85 -15 -16 -18 -25 -10 -28 7 -2 23 9 36 25 18 23 26 27 40 18
32 -20 39 -41 18 -63 -10 -12 -15 -24 -11 -29 4 -4 18 6 30 21 15 18 28 26 39
21 24 -9 33 -45 13 -59 -14 -11 -23 -35 -11 -35 2 0 14 10 27 23 16 16 45 27
98 36 77 14 156 47 179 75 8 9 19 16 25 16 13 0 136 118 136 130 0 5 25 34 55
65 30 32 55 62 55 66 0 19 -19 7 -64 -38 -25 -27 -59 -62 -76 -79 -16 -16 -30
-35 -30 -40 0 -12 -96 -92 -141 -118 -52 -30 -130 -55 -170 -56 -26 0 -49 10
-80 34 -24 18 -54 36 -66 40 -33 11 -44 109 -15 138 7 7 12 18 12 25 0 7 4 21
9 31 17 32 29 67 46 127 9 33 20 71 25 85 5 14 12 50 16 80 4 30 9 66 11 80 7
45 16 180 11 180 -3 0 -12 -39 -21 -87z"/>
<path d="M4924 3703 c3 -10 10 -65 16 -123 6 -63 19 -125 32 -155 22 -52 64
-193 94 -318 11 -46 -33 -101 -98 -122 -29 -10 -59 -22 -66 -28 -24 -19 -95
-11 -144 18 -27 14 -51 32 -55 39 -5 8 -22 20 -38 29 -36 18 -191 177 -199
205 -9 27 -36 37 -36 14 0 -29 54 -94 182 -219 35 -34 117 -91 158 -110 25
-12 118 -33 145 -33 7 0 15 10 17 22 4 31 32 34 65 9 30 -25 40 -21 22 7 -10
17 -10 23 0 36 18 22 44 20 66 -4 10 -11 23 -20 29 -20 8 0 8 2 0 8 -20 13
-35 77 -25 105 5 14 7 27 5 30 -3 3 -7 22 -10 43 -6 53 -54 205 -72 226 -8 9
-12 21 -9 25 3 5 -1 35 -10 68 -8 33 -19 86 -24 118 -5 32 -13 67 -19 77 -5
10 -10 30 -10 44 0 14 -5 26 -11 26 -6 0 -8 -8 -5 -17z"/>
<path d="M8013 3064 c-3 -8 -3 -18 1 -21 3 -4 74 -6 156 -5 l150 2 22 -47 c12
-27 31 -61 43 -78 12 -16 28 -46 35 -65 7 -19 22 -44 32 -56 10 -11 18 -28 18
-37 0 -9 5 -19 11 -22 5 -4 21 -30 34 -58 14 -29 29 -59 34 -67 5 -8 14 -26
21 -40 6 -14 24 -47 41 -75 16 -27 43 -77 60 -110 40 -78 52 -100 68 -118 7
-9 10 -21 7 -26 -4 -5 8 -31 26 -56 l33 -46 7 33 c4 20 2 39 -5 48 -12 15 -43
69 -59 103 -29 61 -100 192 -113 207 -7 8 -20 31 -29 50 -9 19 -25 49 -35 65
-22 34 -71 130 -71 140 0 4 -11 21 -25 39 -14 18 -25 38 -25 44 0 16 -41 82
-51 82 -5 0 -9 7 -9 16 0 8 -9 35 -20 60 l-20 44 -58 2 c-153 4 -207 2 -213
-5 -3 -4 -18 -3 -33 3 -21 8 -28 7 -33 -6z"/>
<path d="M3760 3066 c0 -9 30 -14 35 -6 4 6 -3 10 -14 10 -12 0 -21 -2 -21 -4z"/>
<path d="M3843 2320 c0 -25 2 -35 4 -22 2 12 2 32 0 45 -2 12 -4 2 -4 -23z"/>
<path d="M7018 2223 c12 -2 30 -2 40 0 9 3 -1 5 -23 4 -22 0 -30 -2 -17 -4z"/>
<path d="M1585 2210 c-3 -5 -1 -10 4 -10 6 0 11 5 11 10 0 6 -2 10 -4 10 -3 0
-8 -4 -11 -10z"/>
<path d="M2248 2213 c7 -3 16 -2 19 1 4 3 -2 6 -13 5 -11 0 -14 -3 -6 -6z"/>
<path d="M2323 2213 c9 -2 23 -2 30 0 6 3 -1 5 -18 5 -16 0 -22 -2 -12 -5z"/>
<path d="M2508 2213 c7 -3 16 -2 19 1 4 3 -2 6 -13 5 -11 0 -14 -3 -6 -6z"/>
<path d="M2685 2210 c-3 -5 -1 -10 4 -10 6 0 11 5 11 10 0 6 -2 10 -4 10 -3 0
-8 -4 -11 -10z"/>
<path d="M7340 2209 c0 -5 5 -7 10 -4 6 3 10 8 10 11 0 2 -4 4 -10 4 -5 0 -10
-5 -10 -11z"/>
<path d="M7388 2208 c9 -9 15 -9 24 0 9 9 7 12 -12 12 -19 0 -21 -3 -12 -12z"/>
<path d="M7444 2209 c-3 -5 14 -9 37 -9 23 0 39 3 35 7 -11 11 -65 12 -72 2z"/>
<path d="M8198 2213 c7 -3 16 -2 19 1 4 3 -2 6 -13 5 -11 0 -14 -3 -6 -6z"/>
<path d="M1483 2203 c9 -2 23 -2 30 0 6 3 -1 5 -18 5 -16 0 -22 -2 -12 -5z"/>
<path d="M1758 2203 c7 -3 16 -2 19 1 4 3 -2 6 -13 5 -11 0 -14 -3 -6 -6z"/>
<path d="M1848 2203 c18 -2 45 -2 60 0 15 2 0 4 -33 4 -33 0 -45 -2 -27 -4z"/>
<path d="M2008 2203 c17 -2 47 -2 65 0 17 2 3 4 -33 4 -36 0 -50 -2 -32 -4z"/>
<path d="M7593 2203 c15 -2 39 -2 55 0 15 2 2 4 -28 4 -30 0 -43 -2 -27 -4z"/>
<path d="M7728 2203 c6 -2 18 -2 25 0 6 3 1 5 -13 5 -14 0 -19 -2 -12 -5z"/>
<path d="M7808 2203 c17 -2 47 -2 65 0 17 2 3 4 -33 4 -36 0 -50 -2 -32 -4z"/>
<path d="M7918 2203 c7 -3 16 -2 19 1 4 3 -2 6 -13 5 -11 0 -14 -3 -6 -6z"/>
<path d="M7963 2203 c9 -2 23 -2 30 0 6 3 -1 5 -18 5 -16 0 -22 -2 -12 -5z"/>
<path d="M8023 2203 c9 -2 25 -2 35 0 9 3 1 5 -18 5 -19 0 -27 -2 -17 -5z"/>
<path d="M3855 2150 c9 -81 15 -110 26 -110 6 0 8 4 5 8 -3 5 -7 31 -10 58 -3
27 -10 60 -15 74 -9 20 -10 15 -6 -30z"/>
<path d="M3710 2055 c-13 -14 -20 -28 -17 -32 8 -7 57 35 57 49 0 15 -16 8
-40 -17z"/>
<path d="M8792 2063 c-12 -32 -1 -1055 14 -1263 7 -92 6 -419 -1 -481 -9 -81
-7 -80 -137 -85 -93 -3 -118 -1 -128 11 -6 8 -8 20 -4 27 5 7 7 47 6 88 -3
107 -11 989 -11 1210 0 135 -3 182 -11 174 -8 -8 -11 -110 -10 -335 2 -441 2
-831 -1 -1027 -1 -89 1 -166 5 -169 3 -3 71 -7 150 -7 l143 -1 11 25 c13 32
16 89 16 345 0 271 -14 997 -20 1006 -2 4 -4 118 -5 253 -1 135 -3 246 -6 246
-2 0 -7 -8 -11 -17z"/>
<path d="M3321 1958 c-5 -13 -7 -25 -5 -27 5 -6 24 10 34 30 9 15 7 19 -5 19
-9 0 -19 -10 -24 -22z"/>
<path d="M5258 1856 c-21 -7 -48 -21 -60 -29 -13 -9 -41 -29 -62 -44 -27 -19
-51 -51 -76 -100 -20 -39 -37 -77 -37 -85 -1 -7 -6 -58 -13 -113 -6 -55 -11
-165 -10 -245 1 -197 -12 -285 -51 -360 -23 -45 -36 -60 -53 -60 -11 0 -32 -7
-46 -15 -14 -8 -32 -17 -40 -21 -8 -4 -26 -15 -40 -25 -14 -9 -42 -20 -63 -24
-42 -8 -48 -20 -15 -31 12 -4 31 -17 41 -30 10 -13 23 -24 28 -24 12 0 12 37
-1 45 -21 13 -9 35 26 50 42 17 54 13 54 -21 0 -15 6 -24 16 -24 12 0 15 6 10
20 -3 11 -9 28 -12 39 -4 14 2 23 27 35 43 21 46 21 65 -15 11 -22 19 -28 26
-21 8 8 8 15 1 24 -19 22 -19 55 0 75 26 29 39 150 41 393 2 140 7 223 14 237
7 12 12 39 12 61 0 22 12 66 26 98 88 199 291 251 474 122 53 -38 65 -53 99
-123 48 -100 63 -189 51 -302 -5 -46 -13 -97 -19 -115 -62 -203 -85 -344 -61
-387 7 -14 3 -26 -15 -51 -29 -39 -22 -60 9 -31 29 27 34 26 68 -6 27 -26 37
-53 19 -53 -10 0 -23 -41 -16 -49 3 -2 16 6 29 19 21 19 31 21 70 16 48 -7 53
-14 36 -47 -12 -22 4 -27 17 -6 4 8 20 22 35 31 23 15 33 16 63 6 38 -13 43
-23 20 -46 -17 -17 -20 -44 -5 -44 5 0 24 16 42 36 28 30 38 35 65 31 17 -3
41 -3 52 0 36 9 12 23 -42 23 -29 0 -78 9 -109 20 -31 10 -82 19 -113 19 -38
0 -65 6 -88 20 -94 58 -128 145 -101 253 74 292 84 344 84 444 0 64 -6 99 -26
156 -15 40 -30 75 -35 76 -5 2 -9 8 -9 14 0 31 -66 97 -144 141 -72 41 -93 49
-152 53 -46 3 -82 0 -106 -10z"/>
<path d="M6796 1658 c-2 -7 -9 -33 -16 -58 -7 -25 -21 -69 -32 -98 -10 -30
-21 -70 -24 -89 -3 -19 -13 -49 -22 -67 -10 -17 -23 -48 -30 -69 -8 -20 -31
-66 -53 -102 -21 -36 -39 -67 -39 -69 0 -3 -10 -16 -22 -29 -13 -12 -36 -40
-53 -62 -34 -44 -86 -95 -96 -95 -4 0 -9 -6 -11 -13 -4 -18 -158 -157 -188
-170 -37 -16 -80 -47 -80 -58 0 -14 32 -11 68 9 77 42 298 263 397 398 25 34
45 66 45 71 0 5 13 27 28 49 32 44 62 118 62 152 0 12 5 22 10 22 6 0 10 9 10
19 0 11 4 22 9 25 5 3 12 27 16 53 4 27 10 53 13 58 13 19 29 126 20 131 -4 3
-10 -1 -12 -8z"/>
</g>
</svg>
